<svg xmlns="http://www.w3.org/2000/svg" xmlns:xlink="http://www.w3.org/1999/xlink" width="133" height="40" viewBox="0 0 133 40">
    <defs>
        <path id="prefix__a" d="M0 0.026L38.903 0.026 38.903 40 0 40z"/>
        <path id="prefix__c" d="M0 40L133 40 133 0 0 0z"/>
    </defs>
    <g fill="none" fill-rule="evenodd">
        <mask id="prefix__b" fill="#fff">
            <use xlink:href="#prefix__a"/>
        </mask>
        <path fill="#FFF" d="M32.426.126l-28.06 5.24C1.963 5.798 0 8.151 0 10.986v17.706c0 2.906 1.961 5.208 4.36 5.662l28.076 5.54c3.557.675 6.467-1.964 6.467-5.749V6.137c0-4.18-2.914-6.651-6.477-6.01" mask="url(#prefix__b)"/>
        <path fill="#000" d="M32.499 26c-1.883 0-3.369-.817-4.499-2.478l1.908-1.498c1.108 1.249 1.838 1.59 2.946 1.59.8 0 1.389-.409 1.389-1.022 0-.774-.753-1.114-2.803-1.546-1.932-.41-3.11-1.433-3.11-3.501 0-1.932 1.672-3.545 4.43-3.545 1.932 0 3.346.908 4.123 1.954l-1.885 1.636c-.4-.546-1.25-1.114-2.405-1.114-.941 0-1.555.388-1.555 1.069 0 .591.378.954 2.027 1.318 2.45.546 3.935 1.455 3.935 3.568C37 24.615 35.045 26 32.499 26M19.081 18.699c.249-1.483 1.081-2.373 2.497-2.373 1.463 0 2.339.89 2.453 2.373h-4.95zm7.919.844C27 16.348 25.043 14 21.602 14 18.249 14 16 16.394 16 20c0 3.49 2.497 6 5.825 6 2.407 0 3.892-1.003 5.062-3.058l-2.34-1.231c-.718 1.21-1.776 1.688-2.722 1.688-1.575.024-2.564-.89-2.81-2.372h7.872c.09-.479.113-1.05.113-1.484zM8.522 23.397c-1.568 0-2.606-1.301-2.606-3.298S6.954 16.8 8.522 16.8c1.7 0 2.606 1.302 2.606 3.299 0 1.997-.906 3.298-2.606 3.298zM11.128 10v5.385c-.773-.74-1.767-1.188-2.937-1.188C5.187 14.197 3 16.687 3 20.1 3 23.532 5.187 26 8.191 26c1.325 0 2.43-.627 3.247-1.571l.221 1.28H14V10h-2.872z" mask="url(#prefix__b)"/>
        <path fill="#111" d="M44.083 20c0 2.03 1.027 3.354 2.709 3.354 1.12 0 1.985-.457 2.686-1.735L52 22.83C51.02 24.997 49.057 26 46.723 26 43.38 26 41 23.513 41 20c0-3.515 2.381-6 5.723-6 2.334 0 4.297 1.003 5.277 3.17l-2.522 1.21c-.701-1.279-1.566-1.734-2.686-1.734-1.682 0-2.709 1.324-2.709 3.354M60.948 20c0-1.985-1.11-3.354-2.96-3.354-1.826 0-2.936 1.37-2.936 3.354 0 2.009 1.11 3.354 2.936 3.354 1.85 0 2.96-1.345 2.96-3.354M64 20c0 3.49-2.45 6-6.012 6C54.428 26 52 23.49 52 20c0-3.469 2.428-6 5.988-6C61.55 14 64 16.531 64 20M69.104 17.811V26H66V14.304h2.53l.216 1.122C69.771 14.513 71.157 14 72.542 14c1.837 0 2.864.654 3.413 1.66C77.005 14.585 78.51 14 79.99 14c3.509 0 4.01 2.408 4.01 4.842V26h-3.104v-7.252c0-1.615-.478-2.06-1.646-2.06-.979 0-2.006.47-2.721 1.17.023.328.023.656.023.984V26h-3.104v-7.252c0-1.615-.478-2.06-1.646-2.06-.98 0-1.958.47-2.698 1.123M95.084 20.116c0-2.07-1.038-3.419-2.606-3.419-1.7 0-2.606 1.35-2.606 3.419 0 2.07.906 3.418 2.606 3.418 1.568 0 2.606-1.349 2.606-3.418M89.872 25v5H87V14.302h2.34l.222 1.324C90.379 14.65 91.484 14 92.809 14 95.813 14 98 16.558 98 20.116c0 3.536-2.187 6.115-5.191 6.115-1.17 0-2.164-.463-2.937-1.23M103.195 26c-2.01 0-3.195-1.065-3.195-3.449V10h2.905v11.915c0 .93.334 1.295 1.095 1.295v2.745c-.224.023-.492.045-.805.045"/>
        <mask id="prefix__d" fill="#fff">
            <use xlink:href="#prefix__c"/>
        </mask>
        <path fill="#111" d="M106.414 26h3.172V14.452h-3.172V26zM108 9c1.124 0 2.001.855 2.001 1.919 0 1.015-.877 1.87-2.001 1.87-1.096 0-1.999-.855-1.999-1.87 0-1.064.903-1.919 1.999-1.919zM114.083 20c0 2.03 1.027 3.354 2.709 3.354 1.12 0 1.985-.457 2.686-1.735L122 22.83c-.98 2.168-2.943 3.171-5.277 3.171-3.342 0-5.723-2.487-5.723-6 0-3.515 2.381-6 5.723-6 2.334 0 4.297 1.003 5.277 3.17l-2.522 1.21c-.701-1.279-1.566-1.734-2.686-1.734-1.682 0-2.709 1.324-2.709 3.354M126 22.151c0 .91.841 1.503 1.886 1.503 1.069 0 1.864-.592 1.886-1.503 0-.91-.795-1.527-1.886-1.527-1.045 0-1.886.617-1.886 1.527zm4.546 2.528c-.82.797-2.023 1.321-3.273 1.321C125 26 123 24.36 123 22.151c0-2.413 2-3.87 4.431-3.87 1.229 0 2.046.454 2.614.977v-1.183c0-.934-.75-1.595-2.159-1.595-.84 0-1.886.161-3.091.821l-.841-2.187c1.454-.751 2.705-1.114 4.433-1.114 3.067 0 4.613 1.729 4.613 4.576v7.105h-2.317l-.137-1.002z" mask="url(#prefix__d)"/>
    </g>
</svg>
